:FULLY-SPECIFIED
:FORCE-ALL-JOINTS-BE-3DOF
:DEGREES
510
root 5.87953 15.7587 -5.36164 -62.636 69.2289 -68.4864
lfemur -29.451 -12.4768 -22.4024
ltibia 59.0593 0 0
lfoot -27.6345 -3.35892 0
ltoes 8.1036 0 0
rfemur -50.9837 0.890156 4.7765
rtibia 70.7071 0 0
rfoot 7.11402 5.93252 0
rtoes -26.1347 0 0
lowerback 7.50627 0.232556 -0.272236
upperback 2.40765 0.686696 3.2035
thorax -1.79295 0.451034 3.38897
lowerneck -6.94065 -11.7719 -3.32681
upperneck 8.88085 -15.8347 3.70293
head 4.70701 -7.67239 0.588699
lclavicle 2.29346e-14 1.69733e-14 0
lhumerus -46.9019 -27.6565 112.352
lradius 57.4345 0 0
lwrist 11.2809 0 0
lhand -4.81037 -1.70161 0
lfingers 7.12502 0 0
lthumb 20.9329 26.6447 0
rclavicle 2.29346e-14 1.69733e-14 0
rhumerus -25.0553 18.7061 -92.7645
rradius 100.024 0 0
rwrist -2.9568 0 0
rhand -19.5538 -22.4619 0
rfingers 7.12502 0 0
rthumb 6.76597 -772.143 0
511
root 5.9777 15.6881 -5.27906 -69.301 68.1866 -74.9833
lfemur -29.5713 -12.1279 -22.3001
ltibia 60.4076 0 0
lfoot -28.1197 -3.21583 0
ltoes 7.08393 0 0
rfemur -50.7247 0.679111 4.17855
rtibia 69.7351 0 0
rfoot 6.59492 5.92545 0
rtoes -27.1362 0 0
lowerback 7.8162 0.304993 -0.187329
upperback 2.63443 0.823134 3.45244
thorax -1.74151 0.527792 3.58746
lowerneck -6.77299 -12.057 -3.53377
upperneck 9.11608 -16.2228 3.88864
head 4.79154 -7.85387 0.639192
lclavicle 2.66197e-14 1.92734e-14 0
lhumerus -46.7059 -27.2689 112.208
lradius 57.593 0 0
lwrist 12.0089 0 0
lhand -5.81762 -1.91201 0
lfingers 7.12502 0 0
lthumb 19.9645 26.5255 0
rclavicle 2.66197e-14 1.92734e-14 0
rhumerus -23.0004 18.2413 -92.4077
rradius 102.245 0 0
rwrist -5.73145 0 0
rhand -20.2346 -22.6406 0
rfingers 7.12502 0 0
rthumb 6.10876 -772.335 0
512
root 6.07705 15.6167 -5.19548 -76.0471 67.1318 -81.5592
lfemur -29.6931 -11.7748 -22.1966
ltibia 61.7723 0 0
lfoot -28.6109 -3.071 0
ltoes 6.05186 0 0
rfemur -50.4626 0.465499 3.57333
rtibia 68.7513 0 0
rfoot 6.06951 5.91831 0
rtoes -28.15 0 0
lowerback 8.1299 0.37831 -0.101391
upperback 2.86396 0.961231 3.70441
thorax -1.68944 0.605483 3.78837
lowerneck -6.6033 -12.3455 -3.74326
upperneck 9.35417 -16.6156 4.0766
head 4.87709 -8.03756 0.690298
lclavicle 3.03496e-14 2.16014e-14 0
lhumerus -46.5075 -26.8767 112.063
lradius 57.7534 0 0
lwrist 12.7457 0 0
lhand -6.83711 -2.12496 0
lfingers 7.12502 0 0
lthumb 18.9844 26.4048 0
rclavicle 3.03496e-14 2.16014e-14 0
rhumerus -20.9205 17.771 -92.0466
rradius 104.493 0 0
rwrist -8.53983 0 0
rhand -20.9237 -22.8215 0
rfingers 7.12502 0 0
rthumb 5.44357 -772.531 0
513
root 6.17712 15.5447 -5.11129 -82.8417 66.0693 -88.1825
lfemur -29.8158 -11.4192 -22.0923
ltibia 63.1468 0 0
lfoot -29.1056 -2.92513 0
ltoes 5.01235 0 0
rfemur -50.1985 0.250347 2.96375
rtibia 67.7604 0 0
rfoot 5.5403 5.91111 0
rtoes -29.1711 0 0
lowerback 8.44586 0.452156 -0.0148324
upperback 3.09515 1.10032 3.9582
thorax -1.63699 0.683734 3.99073
lowerneck -6.43237 -12.6361 -3.95425
upperneck 9.59398 -17.0113 4.26591
head 4.96326 -8.22257 0.741773
lclavicle 3.41065e-14 2.39462e-14 0
lhumerus -46.3076 -26.4816 111.917
lradius 57.915 0 0
lwrist 13.4878 0 0
lhand -7.86395 -2.33945 0
lfingers 7.12502 0 0
lthumb 17.9972 26.2832 0
rclavicle 3.41065e-14 2.39462e-14 0
rhumerus -18.8256 17.2972 -91.6828
rradius 106.757 0 0
rwrist -11.3685 0 0
rhand -21.6178 -23.0036 0
rfingers 7.12502 0 0
rthumb 4.77358 -772.727 0
514
root 6.27744 15.4726 -5.0269 -89.6527 65.0042 -94.8217
lfemur -29.9387 -11.0627 -21.9877
ltibia 64.5246 0 0
lfoot -29.6016 -2.77891 0
ltoes 3.97037 0 0
rfemur -49.9339 0.0346825 2.35272
rtibia 66.7671 0 0
rfoot 5.00984 5.90389 0
rtoes -30.1945 0 0
lowerback 8.76258 0.526177 0.0719324
upperback 3.32689 1.23975 4.21259
thorax -1.58442 0.762172 4.19357
lowerneck -6.26105 -12.9274 -4.16574
upperneck 9.83436 -17.4079 4.45568
head 5.04963 -8.40802 0.793371
lclavicle 3.78722e-14 2.62966e-14 0
lhumerus -46.1073 -26.0856 111.771
lradius 58.077 0 0
lwrist 14.2317 0 0
lhand -8.89325 -2.55446 0
lfingers 7.12502 0 0
lthumb 17.0076 26.1614 0
rclavicle 3.78722e-14 2.62966e-14 0
rhumerus -16.7257 16.8224 -91.3183
rradius 109.026 0 0
rwrist -14.2038 0 0
rhand -22.3135 -23.1863 0
rfingers 7.12502 0 0
rthumb 4.10198 -772.924 0
515
root 6.37751 15.4006 -4.94271 -96.4473 63.9417 -101.445
lfemur -30.0614 -10.7071 -21.8834
ltibia 65.8991 0 0
lfoot -30.0963 -2.63304 0
ltoes 2.93086 0 0
rfemur -49.6698 -0.180469 1.74314
rtibia 65.7762 0 0
rfoot 4.48063 5.89669 0
rtoes -31.2156 0 0
lowerback 9.07854 0.600023 0.158491
upperback 3.55807 1.37884 4.46637
thorax -1.53197 0.840423 4.39593
lowerneck -6.09012 -13.218 -4.37673
upperneck 10.0742 -17.8036 4.64499
head 5.1358 -8.59303 0.844846
lclavicle 4.16291e-14 2.86414e-14 0
lhumerus -45.9074 -25.6905 111.625
lradius 58.2386 0 0
lwrist 14.9739 0 0
lhand -9.92009 -2.76895 0
lfingers 7.12502 0 0
lthumb 16.0204 26.0398 0
rclavicle 4.16291e-14 2.86414e-14 0
rhumerus -14.6308 16.3486 -90.9545
rradius 111.29 0 0
rwrist -17.0325 0 0
rhand -23.0076 -23.3684 0
rfingers 7.12502 0 0
rthumb 3.43199 -773.12 0
516
root 6.47686 15.3292 -4.85913 -103.193 62.8869 -108.021
lfemur -30.1832 -10.354 -21.7799
ltibia 67.2638 0 0
lfoot -30.5875 -2.48821 0
ltoes 1.89879 0 0
rfemur -49.4077 -0.394081 1.13792
rtibia 64.7924 0 0
rfoot 3.95522 5.88955 0
rtoes -32.2294 0 0
lowerback 9.39224 0.67334 0.244429
upperback 3.78761 1.51694 4.71834
thorax -1.4799 0.918114 4.59684
lowerneck -5.92043 -13.5065 -4.58622
upperneck 10.3123 -18.1964 4.83295
head 5.22135 -8.77672 0.895952
lclavicle 4.5359e-14 3.09695e-14 0
lhumerus -45.709 -25.2983 111.48
lradius 58.399 0 0
lwrist 15.7107 0 0
lhand -10.9396 -2.9819 0
lfingers 7.12502 0 0
lthumb 15.0403 25.9191 0
rclavicle 4.5359e-14 3.09695e-14 0
rhumerus -12.5509 15.8783 -90.5934
rradius 113.538 0 0
rwrist -19.8409 0 0
rhand -23.6967 -23.5493 0
rfingers 7.12502 0 0
rthumb 2.7668 -773.316 0
